<!DOCTYPE svg PUBLIC "-//W3C//DTD SVG 1.1//EN" "http://www.w3.org/Graphics/SVG/1.1/DTD/svg11.dtd">
<!-- Uploaded to: SVG Repo, www.svgrepo.com, Transformed by: SVG Repo Mixer Tools -->
<svg fill="#e88069" height="800px" width="800px" version="1.1" id="Capa_1" xmlns="http://www.w3.org/2000/svg" xmlns:xlink="http://www.w3.org/1999/xlink" viewBox="0 0 489.9 489.9" xml:space="preserve" stroke="#e88069">
<g id="SVGRepo_bgCarrier" stroke-width="0"/>
<g id="SVGRepo_tracerCarrier" stroke-linecap="round" stroke-linejoin="round"/>
<g id="SVGRepo_iconCarrier"> <g> <g> <g> <path d="M469.2,448.9H41.6V21.3c0-11.4-9.4-20.8-20.8-20.8S0,9.9,0,21.3v447.3c0,11.4,9.4,20.8,20.8,20.8h447.3 c11.4,0,21.8-8.3,21.8-19.8S480.6,448.9,469.2,448.9z"/> </g> <path d="M329.7,256.7l-35.9-65.6l101.1-55.2l-12.6,42.9c-3.1,12.5,5.2,22.4,13.6,24.8c10.6,3,21.7-3,24.8-13.6l26.2-89.2 c2.9-10-0.5-21.3-13.6-24.8l-89.2-26.2c-10.6-3.1-21.7,3-24.8,13.6s3,21.7,13.6,24.8l42.9,12.6l-118.6,64.8 c-9.7,5.3-13.3,17.4-8,27.1l35.9,65.6l-166.7,91.1c-9.7,5.3-13.3,17.4-8,27.1s17.4,13.3,27.1,8l184.2-100.7 C331.4,278.6,335,266.4,329.7,256.7z"/> </g> </g> </g>
</svg>